# xmcd
#
# Track frame offsets:
#	150
#	15207
#	27422
#	42012
#	56495
#	70630
#	86347
#	102500
#	117772
#	132187
#	144697
#	160002
#	174677
#	189960
#	207472
#	221307
#
# Disc length: 3186
#
# Revision: 1
# Processed by: cddbd v1.5.1PL0 Copyright (c) Steve Scherf et al.
# Submitted via: VisiTrax 2.9.5.180 - For more info visit www.synapsa.com
# Normalized: r0:DSETVAR1
#
DISCID=d00c7010
DTITLE=Various Artist - CDX 155 February 1997
DYEAR=1997
DGENRE=
TTITLE0=Jeffrey Steele - A girl like you
TTITLE1=Mindy McCready - A girl's gotta do (what a girl's gotta do)
TTITLE2=Sammy Kershaw - Fit to be tied down
TTITLE3=Mike Ward - God knows what
TTITLE4=Joe Nichols - I hate the way I love you
TTITLE5=Tanya Tucker - Little things
TTITLE6=Alabama - Sad lookin' moon
TTITLE7=Kevin Sharp - She's sure taking it well
TTITLE8=Bryan White - Sittin' on go
TTITLE9=Brady Seals - Still standing tall
TTITLE10=Don Cox - Sweet sweet woman
TTITLE11=Jack Ingram - That's not me
TTITLE12=Nikki Nelson - Too little too much
TTITLE13=LeAnn Rimes - Unchained melody
TTITLE14=Sons of the Desert - Whatever comes first
TTITLE15=Drivin' Sideways - What else would I do on sunday
EXTD=
EXTT0=
EXTT1=
EXTT2=
EXTT3=
EXTT4=
EXTT5=
EXTT6=
EXTT7=
EXTT8=
EXTT9=
EXTT10=
EXTT11=
EXTT12=
EXTT13=
EXTT14=
EXTT15=
PLAYORDER=
